# Blender 4.2.2 LTS
# www.blender.org
o Crystal_3.002
v -0.511192 -1.857430 1.545950
v -1.634400 -1.857413 0.000000
v 0.468841 -2.183537 1.470279
v -1.259590 -2.183531 -0.908682
v -0.587098 2.642789 1.161034
v -0.401637 3.452822 0.733429
v 1.719539 0.000000 0.369680
v 1.702379 -0.205333 0.508782
v 1.142289 -2.363993 -0.836371
v 1.382959 -1.965879 -0.637693
v 0.335768 -2.139257 -1.480553
v 1.719539 0.000000 -0.340298
v 1.664845 -0.654453 -0.393270
v 0.509854 -2.370998 -1.344049
v 0.407094 -2.291335 -1.425417
v 1.682711 0.664634 -0.360639
v -1.393365 -2.067134 0.584359
v -1.672334 -1.172802 0.206993
v -1.023115 -2.080492 1.110043
v -0.754361 -1.059322 1.513439
v -1.228521 -2.325534 0.813063
v -1.161257 -2.322416 0.908682
v -0.426841 -2.540019 1.286342
v -1.357603 -2.549582 0.000000
v -0.424484 -2.559092 -1.279088
v 0.253575 -2.559351 -1.313879
v -0.995635 -2.556338 -0.908682
v -1.178429 -2.554481 -0.658898
v -1.005201 -2.542827 0.908682
v 1.326732 -2.550719 -0.152807
v 0.264801 -2.539753 1.322035
v 0.546924 -2.540438 1.229953
v 1.080342 -2.555466 -0.791364
v 0.550906 -2.558636 -1.217699
v -1.180584 -2.544634 0.665528
v -0.897410 -2.025718 -1.217082
v -1.243238 -1.987861 -0.959009
v -1.381159 -1.627884 -0.820358
v -0.437404 -1.881983 -1.540252
v -0.497760 -1.966120 -1.504612
v 0.102372 -1.054830 -1.652834
v -0.206145 -1.196606 -1.639202
v -0.286863 -1.027897 1.667169
v -0.560286 2.520238 1.243555
v 0.145638 -0.706293 1.705103
v -0.944792 1.429271 1.295591
v -0.738631 -0.594746 1.545617
v 0.801182 -2.054104 1.265938
v 1.493682 -2.122266 -0.179496
v 1.685083 -0.412294 0.455552
v 1.574103 -1.740244 -0.114011
v 1.677749 -0.244875 0.570614
v 1.624971 -0.262722 0.666988
v 1.359215 -2.494008 -0.129207
v 1.326968 -2.550307 -0.097487
v 0.760466 -2.541726 1.056722
v -0.373531 3.778347 0.047985
v -0.412526 3.476392 0.687027
v -0.712796 2.327287 1.216100
v -0.959839 1.482573 1.275344
v -1.698418 -0.702072 0.179903
v -1.705525 -0.573815 -0.388098
v -0.926047 2.142122 -0.764262
v -1.687601 -0.489807 -0.477250
v -0.912665 1.639999 1.278505
v -0.742065 2.221331 1.245054
v 0.823466 -0.872203 1.470284
v -0.088637 3.331405 0.908257
v 0.563748 3.509830 0.373386
v 1.585778 -0.246228 0.722487
v 0.303190 -0.307679 1.688938
v -0.299404 2.603386 1.278244
v 1.392010 -0.563993 0.959232
v 1.153718 -0.908110 1.236650
v 0.045995 3.788161 -0.077299
v 1.657969 1.111165 -0.225630
v 0.641616 3.580107 0.207464
v 1.651680 1.224662 -0.180250
v 1.661827 0.759492 -0.376084
v -0.231499 1.215069 -1.370728
v 0.234446 0.174015 -1.529793
v -0.334939 1.641415 -1.250542
vn -0.6018 -0.1514 -0.7842
vn -0.5864 0.3602 0.7255
vn -0.8062 -0.0833 -0.5857
vn -0.6018 -0.1514 0.7842
vn -0.7020 -0.4970 -0.5100
vn -0.9008 -0.3602 -0.2423
vn -0.0479 -0.3602 0.9316
vn 0.2681 -0.4970 0.8253
vn 0.5864 -0.3602 0.7255
vn -0.9555 0.2848 0.0763
vn 0.9478 -0.1514 0.2807
vn 0.8078 -0.0553 0.5869
vn 0.2681 -0.4970 -0.8253
vn 0.5002 0.3452 -0.7941
vn 0.9478 -0.1514 -0.2807
vn 0.5864 -0.3602 -0.7255
vn -0.7020 -0.4970 0.5100
vn -0.5088 -0.3602 0.7819
vn -0.9318 -0.1514 0.3300
vn -0.9008 -0.3602 0.2423
vn 0.8677 -0.4970 -0.0000
vn 0.8712 -0.3602 -0.3335
vn -0.0939 0.1092 -0.9896
vn -0.0479 -0.3602 -0.9316
vn -0.5088 -0.3602 -0.7819
vn 0.0259 -0.1514 -0.9881
vn -0.8269 0.3987 0.3966
vn 0.5786 0.2302 0.7825
vn 0.0259 -0.1514 0.9881
vn -0.3085 -0.0553 0.9496
vn -0.0000 -1.0000 0.0074
vn 0.9965 -0.0833 -0.0000
vn -0.9318 -0.1514 -0.3300
vn -0.9985 -0.0553 -0.0000
vn -0.5599 0.1514 0.8146
vn -0.8177 -0.0122 0.5756
vn 0.8671 -0.2558 0.4275
vn -0.1637 0.1045 0.9810
vn -0.2681 0.4970 0.8253
vn 0.3079 -0.0833 0.9478
vn 0.5599 -0.1514 0.8146
vn -0.5901 0.0832 -0.8030
vn 0.6259 0.0108 -0.7798
vn 0.8225 0.2703 0.5005
vn 0.9318 0.1514 -0.3300
vn 0.9985 0.0553 -0.0000
vn -0.2588 0.4982 -0.8275
vn 0.1075 0.8964 0.4301
vt 0.683278 0.157461
vt 0.727273 0.157461
vt 0.723200 0.164516
vt 0.061920 0.322301
vt 0.079568 0.334565
vt 0.075440 0.341715
vt 0.064232 0.327385
vt 0.738840 0.177496
vt 0.937816 0.157461
vt 1.000000 0.157461
vt 0.980469 0.191290
vt 0.714716 0.135711
vt 0.739768 0.135819
vt 0.799405 0.124938
vt 0.818182 0.157461
vt 0.169821 0.136679
vt 0.181819 0.157461
vt 0.090910 0.157461
vt 0.109427 0.125388
vt 0.193841 0.136639
vt 0.217797 0.132098
vt 0.217901 0.157461
vt 0.778455 0.216304
vt 0.786770 0.211869
vt 0.832743 0.206432
vt 0.044466 0.294099
vt 0.243131 0.299703
vt 0.142224 0.391504
vt 0.444343 0.424792
vt 0.726098 0.323810
vt 0.316331 0.226390
vt 0.326765 0.221325
vt 0.322457 0.228787
vt 0.276563 0.212285
vt 0.306782 0.225055
vt 0.301284 0.225754
vt 0.532820 0.135577
vt 0.558114 0.135535
vt 0.549086 0.151172
vt 0.539141 0.146524
vt 0.626000 0.285217
vt 0.642587 0.302689
vt 0.445720 0.426038
vt 0.274073 0.404241
vt 0.378226 0.288101
vt 0.381899 0.283290
vt 0.394837 0.267778
vt 0.562637 0.245452
vt 0.380716 0.157461
vt 0.424313 0.157461
vt 0.395468 0.212594
vt 0.372865 0.173444
vt 0.468288 0.133659
vt 0.473482 0.124662
vt 0.896928 0.136394
vt 0.921193 0.136499
vt 0.913769 0.149358
vt 0.904308 0.149176
vt 0.981483 0.125388
vt 0.876644 0.157461
vt 0.834936 0.186480
vt 0.836959 0.124938
vt 0.374095 0.139347
vt 0.371527 0.136063
vt 0.376005 0.136039
vt 0.435610 0.124662
vt 0.440804 0.133659
vt 0.580016 0.196611
vt 0.608497 0.187106
vt 0.617330 0.124492
vt 0.633415 0.152354
vt 0.629519 0.157461
vt 0.557799 0.157461
vt 0.639312 0.152354
vt 0.655398 0.124492
vt 0.079022 0.388973
vt 0.246640 0.399023
vt 0.107488 0.381890
vt 0.100518 0.339416
vt 0.163599 0.225097
vt 0.209117 0.204743
vt 0.246543 0.198112
vt 0.151067 0.210725
vt 0.111210 0.192622
vt 0.073394 0.210982
vt 0.071379 0.191290
vt 0.391180 0.236191
vt 0.333716 0.236191
vt 0.046665 0.291715
vt 0.048260 0.299703
vt 0.311569 0.291715
vt 0.340073 0.294099
vt 0.392827 0.264363
vt 0.779540 0.424792
vt 0.600574 0.426038
s 0
f 36/1/1 4/2/1 37/3/1
f 66/4/2 44/5/2 5/6/2 59/7/2
f 37/3/3 4/2/3 38/8/3
f 19/9/4 1/10/4 20/11/4
f 27/12/5 28/13/5 4/2/5
f 24/14/6 2/15/6 4/2/6 28/13/6
f 31/16/7 3/17/7 1/18/7 23/19/7
f 31/16/8 32/20/8 3/17/8
f 56/21/9 48/22/9 3/17/9 32/20/9
f 64/23/10 62/24/10 61/25/10 60/26/10 65/27/10 66/4/10 59/7/10 58/28/10 57/29/10 63/30/10
f 52/31/11 50/32/11 8/33/11
f 73/34/12 53/35/12 70/36/12
f 34/37/13 26/38/13 15/39/13 14/40/13
f 80/41/14 82/42/14 75/43/14 77/44/14 78/45/14 76/46/14 79/47/14 81/48/14
f 49/49/15 10/50/15 13/51/15 51/52/15
f 34/37/16 14/40/16 9/53/16 33/54/16
f 35/55/17 29/56/17 22/57/17 21/58/17
f 23/59/18 1/10/18 19/9/18 22/57/18 29/56/18
f 2/15/19 17/60/19 18/61/19
f 35/55/20 21/58/20 17/60/20 2/15/20 24/62/20
f 54/63/21 55/64/21 30/65/21
f 54/63/22 30/65/22 33/66/22 9/67/22 10/50/22 49/49/22
f 81/48/23 41/68/23 42/69/23 80/41/23
f 25/70/24 40/71/24 39/72/24 11/73/24 15/39/24 26/38/24
f 27/12/25 4/2/25 36/1/25 40/74/25 25/75/25
f 11/73/26 39/72/26 42/69/26 41/68/26
f 58/28/27 59/7/27 5/6/27 6/76/27
f 73/34/28 70/36/28 69/77/28 68/78/28 72/79/28 71/80/28 67/81/28 74/82/28
f 1/18/29 3/17/29 45/83/29 43/84/29
f 1/18/30 43/84/30 47/85/30 20/86/30
f 31/16/31 23/59/31 29/56/31 35/55/31 24/14/31 28/13/31 27/12/31 25/70/31 26/38/31 34/37/31 33/66/31 30/65/31 55/64/31 56/21/31 32/20/31
f 8/33/32 50/32/32 51/52/32 13/51/32 12/87/32 7/88/32
f 4/2/33 2/15/33 62/24/33 64/23/33 38/8/33
f 2/15/34 18/61/34 61/25/34 62/24/34
f 46/89/35 65/90/35 60/26/35
f 18/61/36 17/60/36 21/58/36 22/57/36 19/9/36 20/86/36 47/85/36 46/91/36 60/92/36 61/25/36
f 49/49/37 51/52/37 50/32/37 52/31/37 53/35/37 73/34/37 74/82/37 48/22/37 56/21/37 55/64/37 54/63/37
f 65/27/38 46/91/38 47/85/38 43/84/38 45/83/38 71/80/38 72/79/38 44/5/38 66/4/38
f 5/6/39 44/5/39 72/79/39 68/78/39 6/76/39
f 45/83/40 3/17/40 67/81/40 71/80/40
f 3/17/41 48/22/41 74/82/41 67/81/41
f 42/69/42 39/72/42 40/74/42 36/1/42 37/3/42 38/8/42 64/23/42 63/30/42 82/42/42 80/41/42
f 15/39/43 11/73/43 41/68/43 81/48/43 79/47/43 16/93/43 12/87/43 13/51/43 10/50/43 9/67/43 14/40/43
f 69/77/44 70/36/44 53/35/44 52/31/44 8/33/44 7/88/44 78/45/44 77/44/44
f 16/93/45 79/47/45 76/46/45
f 7/88/46 12/87/46 16/93/46 76/46/46 78/45/46
f 63/30/47 57/29/47 75/43/47 82/42/47
f 57/94/48 58/28/48 6/76/48 68/78/48 69/77/48 77/44/48 75/95/48
