# Blender 4.2.2 LTS
# www.blender.org
g Crystal_2_Beveled_Cube.006
v -1.000000 -0.942312 -0.942312
v -0.942312 -0.942312 -1.000000
v -0.942312 -1.000000 -0.942312
v 1.000000 -0.942312 0.320994
v 0.971138 -0.943224 0.436437
v 0.942312 -1.000000 0.389936
v 0.643818 -1.000000 0.942312
v 0.694149 -0.943224 0.949016
v 0.607528 -0.942312 1.000000
v -1.000000 0.672463 0.585529
v -0.959145 0.687687 0.682786
v -0.973153 1.020178 0.583360
v -0.117423 -1.000000 0.942312
v 0.216673 -0.942312 1.000000
v -0.128662 -0.943214 0.989218
v 0.581134 -0.813330 1.000000
v 0.672566 -0.732173 0.968238
v 0.564456 -0.697153 0.994200
v -0.942312 -0.020395 -1.000000
v -1.000000 -0.022817 -0.942312
v -0.966194 0.320150 -0.952330
v 1.000000 -0.018049 -0.942312
v 0.942312 -0.015324 -1.000000
v 0.959676 0.146092 -0.953216
v 0.999688 1.003580 -0.292514
v 1.000000 0.866570 -0.364002
v 0.999796 1.010310 -0.407877
v -0.795181 -0.942312 -1.000000
v -0.547773 -0.959519 -0.956604
v -0.795908 -1.000000 -0.942312
v 0.942312 -0.353550 -1.000000
v 1.000000 -0.369687 -0.942312
v 0.944018 -0.454015 -0.956604
v 0.942312 -1.000000 -0.305410
v 0.944018 -0.959519 -0.409996
v 1.000000 -0.942312 -0.323125
v -0.942312 -1.000000 -0.203030
v -0.961077 -0.949872 -0.069822
v -1.000000 -0.942312 -0.209186
v -1.000000 -0.080752 0.720619
v -0.961077 -0.192007 0.748074
v -0.942424 -0.081153 0.782955
v -0.235353 -1.000000 0.934826
v -0.240657 -0.943214 0.982110
v -0.344131 -0.949872 0.923157
v 0.468738 1.067720 0.818911
v 0.552934 1.082132 0.772553
v 0.486105 1.176394 0.778595
v 0.976645 1.752741 -0.295386
v 0.946314 1.782485 -0.373336
v 0.945580 1.857933 -0.310327
v 0.709126 1.904149 0.221999
v 0.778657 1.841788 0.187851
v 0.764632 1.939205 0.130625
v 0.657157 1.991525 0.171700
v 0.652001 2.061226 0.077735
v 0.725205 2.114235 -0.476805
v 0.703306 2.174239 -0.423253
v 0.787024 2.095829 -0.384524
v -0.868999 1.680083 0.570493
v -0.814019 1.780505 0.567565
v -0.785169 1.710489 0.628463
v -0.713430 1.791311 0.599609
v -1.000000 1.657177 0.254475
v -0.973153 1.653747 0.370359
v -0.956386 1.744508 0.294004
v -0.235693 2.413903 0.063218
v -0.207964 2.468047 -0.026752
v -0.303463 2.446542 -0.007629
v -1.000000 1.729370 -0.438321
v -0.944756 1.772431 -0.498885
v -0.966194 1.565217 -0.594205
v 0.183705 1.628428 -0.968954
v 0.101697 1.556347 -1.000000
v 0.084084 1.662110 -0.963362
v -0.797866 1.162156 -0.952330
v -0.726440 1.249673 -0.963362
v -0.709634 1.143500 -1.000000
v 0.474711 2.262002 -0.610638
v 0.379328 2.302297 -0.604331
v 0.447136 2.319631 -0.543807
v -0.215239 2.507154 -0.159404
v -0.265022 2.484717 -0.230388
v -0.310916 2.486605 -0.143527
v -1.000000 1.862541 -0.340734
v -0.956386 1.948481 -0.297176
v -0.944756 1.918027 -0.392193
vn 0.6491 0.2330 -0.7241
vn 0.1694 0.5654 0.8072
vn -0.1037 0.1060 0.9889
vn -0.7381 -0.4949 0.4586
vn -0.0000 -0.0000 1.0000
vn -0.2880 0.5660 -0.7724
vn 0.9123 0.0931 0.3987
vn -0.8103 0.1620 -0.5632
vn 1.0000 -0.0000 -0.0000
vn 0.3911 0.8884 0.2405
vn 0.7813 0.5870 0.2124
vn -0.8851 0.1483 0.4411
vn -0.6545 0.7147 0.2466
vn -0.0000 -1.0000 -0.0000
vn 0.2414 -0.7125 -0.6589
vn -0.0000 -0.0000 -1.0000
vn -0.5774 -0.5774 -0.5774
vn 0.8004 -0.5666 0.1956
vn 0.4411 -0.4805 0.7580
vn -0.9235 0.0737 0.3764
vn -0.0223 -0.6393 0.7686
vn 0.2587 0.0852 0.9622
vn -0.7073 0.0491 -0.7052
vn 0.7044 0.1267 -0.6984
vn 1.0000 0.0017 0.0010
vn 0.0745 -0.7056 -0.7047
vn 0.6319 -0.2983 -0.7153
vn 0.6386 -0.7211 -0.2687
vn -0.7065 -0.6894 0.1599
vn -0.7319 -0.0894 0.6755
vn -0.3593 -0.6167 0.7004
vn 0.4334 0.2518 0.8653
vn 0.9326 0.2367 -0.2726
vn 0.6820 0.4409 0.5835
vn 0.5257 0.6968 0.4880
vn 0.7208 0.5891 -0.3653
vn -0.6154 0.3574 0.7025
vn -0.3066 0.5496 0.7771
vn -0.9088 0.3538 0.2210
vn -0.0966 0.8657 0.4912
vn -0.8020 0.3161 -0.5068
vn 0.0608 0.3357 -0.9400
vn -0.4231 0.2350 -0.8751
vn 0.2932 0.7805 -0.5521
vn -0.2304 0.9626 -0.1427
vn -0.7960 0.5413 -0.2709
vn -0.7071 -0.0000 -0.7071
vn -0.0000 -0.7071 -0.7071
vn -0.0000 -0.7071 0.7071
vn 0.4186 0.0077 0.9082
vn 0.9913 0.0398 0.1257
vn 0.6750 -0.6414 0.3647
vn 0.3606 0.1176 0.9253
vn -0.0263 0.0609 0.9978
vn -0.9514 0.0851 -0.2960
vn 0.9782 0.0960 -0.1843
vn 0.3293 0.1695 -0.9289
vn 0.7071 -0.0000 -0.7071
vn 0.7071 -0.7071 -0.0000
vn 0.7879 -0.4522 -0.4181
vn 0.1305 -0.9253 -0.3560
vn 0.1325 -0.3911 -0.9107
vn -0.7071 -0.7071 -0.0000
vn -0.8519 0.0708 0.5189
vn -0.0486 -0.6418 0.7653
vn -0.4768 -0.1898 0.8583
vn -0.9322 -0.2654 0.2460
vn -0.4269 -0.8646 0.2652
vn 0.6150 0.3548 0.7042
vn 0.0278 0.3312 0.9431
vn 0.9881 0.0527 -0.1445
vn 0.7991 0.3899 -0.4576
vn 0.8982 0.3107 0.3110
vn 0.5256 0.6371 0.5637
vn 0.6361 0.7331 0.2407
vn 0.6029 0.6802 -0.4169
vn -0.6940 0.1429 0.7056
vn -0.9709 0.0764 0.2272
vn 0.2985 0.7743 0.5580
vn -0.1553 0.9452 0.2872
vn -0.2778 0.7407 0.6117
vn -0.8128 0.4556 0.3630
vn -0.4583 0.0916 -0.8841
vn -0.9095 0.3929 0.1356
vn -0.5628 0.7647 -0.3140
vn 0.0664 0.9371 -0.3427
vn -0.1530 0.3006 -0.9414
vn 0.1153 0.4466 -0.8873
vn -0.5854 0.3880 -0.7119
vn -0.8025 0.3527 -0.4813
vn -1.0000 -0.0000 -0.0000
vt 0.621780 0.576795
vt 0.517162 0.505733
vt 0.682839 0.504290
vt 0.687777 0.548782
vt 0.656216 0.564473
vt 0.628168 0.577333
vt 0.607264 0.398332
vt 0.574960 0.724166
vt 0.601958 0.646532
vt 0.605133 0.621477
vt 0.619992 0.372241
vt 0.568004 0.728061
vt 0.605239 0.379477
vt 0.577289 0.085342
vt 0.381620 0.382400
vt 0.346568 0.850294
vt 0.371093 0.866757
vt 0.421130 0.783689
vt 0.356798 0.408363
vt 0.149744 0.602830
vt 0.324863 0.824954
vt 0.382211 0.799059
vt 0.398334 0.802358
vt 0.382211 0.847916
vt 0.598173 0.192347
vt 0.705081 0.469784
vt 0.692700 0.538783
vt 0.682247 0.488688
vt 0.565510 0.286712
vt 0.589406 0.201816
vt 0.381651 0.682558
vt 0.617982 0.588272
vt 0.621709 0.588859
vt 0.601518 0.655504
vt 0.569790 0.736557
vt 0.416728 0.778189
vt 0.383340 0.780026
vt 0.575104 0.203501
vt 0.555476 0.269308
vt 0.514470 0.248267
vt 0.453789 0.507211
vt 0.497744 0.507211
vt 0.608321 0.579500
vt 0.382211 0.665124
vt 0.382211 0.584609
vt 0.657677 0.570716
vt 0.691908 0.556348
vt 0.769941 0.602796
vt 0.764577 0.617918
vt 0.619223 0.618587
vt 0.606269 0.640308
vt 0.626300 0.586155
vt 0.645880 0.575612
vt 0.605744 0.129316
vt 0.592711 0.102690
vt 0.606286 0.300644
vt 0.687685 0.438808
vt 0.599959 0.184192
vt 0.607583 0.135428
vt 0.608466 0.348962
vt 0.637759 0.373170
vt 0.132211 0.507211
vt 0.150511 0.507211
vt 0.367789 0.586824
vt 0.367789 0.673742
vt 0.330477 0.742789
vt 0.235322 0.742789
vt 0.220581 0.741853
vt 0.132211 0.599621
vt 0.436250 0.505424
vt 0.373062 0.573750
vt 0.186588 0.505424
vt 0.381654 0.257211
vt 0.493895 0.257211
vt 0.554034 0.286296
vt 0.574687 0.387712
vt 0.495317 0.492789
vt 0.454912 0.492789
vt 0.381402 0.275602
vt 0.125000 0.507211
vt 0.132211 0.500000
vt 0.375000 0.665124
vt 0.371392 0.679555
vt 0.336769 0.743627
vt 0.325941 0.750000
vt 0.584712 0.046534
vt 0.592649 0.143907
vt 0.277084 0.750000
vt 0.233917 0.748652
vt 0.416146 0.793750
vt 0.420338 0.784816
vt 0.494280 0.242789
vt 0.498085 0.500000
vt 0.515440 0.510164
vt 0.150602 0.500000
vt 0.179761 0.510248
vt 0.444080 0.500000
vt 0.448495 0.502315
vt 0.132897 0.614389
vt 0.125000 0.598852
vt 0.364585 0.376660
vt 0.369795 0.379613
vt 0.219918 0.747764
vt 0.210015 0.738511
vt 0.605349 0.630886
vt 0.607151 0.607857
vt 0.608487 0.350001
vt 0.605193 0.376314
vt 0.603110 0.093191
vt 0.621090 0.367204
vt 0.621408 0.356906
vt 0.584047 0.179790
vt 0.577467 0.392604
vt 0.578269 0.388037
vt 0.555165 0.279249
vt 0.557827 0.286721
vt 0.693317 0.546255
vt 0.690744 0.550580
vt 0.711245 0.483333
vt 0.705267 0.462238
vt 0.591581 0.167592
vt 0.381815 0.242789
vt 0.408837 0.786236
vt 0.386821 0.788830
vt 0.372516 0.680162
vt 0.337893 0.744234
vt 0.394130 0.845201
vt 0.506220 0.491239
vt 0.153298 0.500000
vt 0.378928 0.358303
vt 0.233837 0.749920
vt 0.219837 0.749032
vt 0.129200 0.597734
vt 0.608431 0.628624
vt 0.578708 0.051809
vt 0.639503 0.380600
vt 0.695904 0.457923
vt 0.694274 0.546890
vt 0.488820 0.034923
vt 0.381502 0.151148
s 0
f 27/1/1 24/2/1 73/3/1 79/4/1 57/5/1 50/6/1
f 63/7/2 48/8/2 52/9/2 55/10/2 67/11/2
f 46/12/3 62/13/3 11/14/3 42/15/3 44/16/3 15/17/3 18/18/3
f 41/19/4 38/20/4 45/21/4
f 9/22/5 16/23/5 14/24/5
f 87/25/6 83/26/6 80/27/6 75/28/6 77/29/6 71/30/6
f 5/31/7 25/32/7 49/33/7 53/34/7 47/35/7 17/36/7 8/37/7
f 72/38/8 76/39/8 21/40/8
f 32/41/9 22/42/9 26/43/9 4/44/9 36/45/9
f 58/46/10 81/47/10 82/48/10 68/49/10 56/50/10
f 54/51/11 51/52/11 59/53/11
f 65/54/12 12/55/12 60/56/12
f 84/57/13 86/58/13 66/59/13 61/60/13 69/61/13
f 3/62/14 30/63/14 34/64/14 6/65/14 7/66/14 13/67/14 43/68/14 37/69/14
f 33/70/15 35/71/15 29/72/15
f 2/73/16 19/74/16 78/75/16 74/76/16 23/77/16 31/78/16 28/79/16
f 1/80/17 2/81/17 3/62/17
f 4/82/18 5/83/18 6/65/18
f 7/66/19 8/84/19 9/85/19
f 10/86/20 11/14/20 12/87/20
f 13/67/21 14/88/21 15/89/21
f 16/90/22 17/91/22 18/18/22
f 19/74/23 20/92/23 21/40/23
f 22/42/24 23/93/24 24/94/24
f 25/32/25 26/43/25 27/1/25
f 28/95/26 29/96/26 30/63/26
f 31/97/27 32/98/27 33/70/27
f 34/64/28 35/71/28 36/45/28
f 37/69/29 38/99/29 39/100/29
f 40/101/30 41/19/30 42/102/30
f 43/68/31 44/103/31 45/104/31
f 46/12/32 47/35/32 48/8/32
f 49/33/33 50/6/33 51/52/33
f 52/9/34 53/34/34 54/51/34
f 55/10/35 54/105/35 56/106/35
f 57/5/36 58/46/36 59/53/36
f 60/56/37 62/13/37 61/107/37
f 62/108/38 63/7/38 61/60/38
f 64/109/39 65/54/39 66/59/39
f 67/11/40 68/110/40 69/111/40
f 70/112/41 71/30/41 72/38/41
f 73/113/42 74/76/42 75/114/42
f 76/115/43 77/116/43 78/75/43
f 79/4/44 80/117/44 81/118/44
f 82/119/45 83/26/45 84/120/45
f 85/121/46 86/58/46 87/25/46
f 19/74/47 2/73/47 1/122/47 20/92/47
f 30/63/48 3/62/48 2/81/48 28/95/48
f 13/67/49 7/66/49 9/85/49 14/88/49
f 16/123/50 9/124/50 8/37/50 17/36/50
f 25/32/51 5/31/51 4/44/51 26/43/51
f 5/125/52 8/126/52 7/66/52 6/65/52
f 46/12/53 18/18/53 17/36/53 47/35/53
f 18/18/54 15/17/54 14/127/54 16/90/54
f 72/38/55 21/40/55 20/92/55 70/112/55
f 24/2/56 27/1/56 26/43/56 22/42/56
f 73/113/57 24/128/57 23/77/57 74/76/57
f 22/42/58 32/41/58 31/78/58 23/77/58
f 6/65/59 34/64/59 36/45/59 4/44/59
f 32/41/60 36/45/60 35/71/60 33/70/60
f 29/72/61 35/71/61 34/64/61 30/63/61
f 33/70/62 29/72/62 28/129/62 31/97/62
f 3/62/63 37/69/63 39/100/63 1/80/63
f 10/86/64 40/130/64 42/15/64 11/14/64
f 15/131/65 44/132/65 43/68/65 13/67/65
f 41/19/66 45/21/66 44/16/66 42/15/66
f 40/101/67 39/133/67 38/20/67 41/19/67
f 45/104/68 38/99/68 37/69/68 43/68/68
f 52/9/69 48/8/69 47/35/69 53/34/69
f 62/108/70 46/12/70 48/8/70 63/7/70
f 27/1/71 50/6/71 49/33/71 25/32/71
f 59/53/72 51/52/72 50/6/72 57/5/72
f 51/52/73 54/51/73 53/34/73 49/33/73
f 54/134/74 55/10/74 52/9/74
f 58/46/75 56/50/75 54/134/75 59/53/75
f 81/47/76 58/46/76 57/5/76 79/4/76
f 11/14/77 62/13/77 60/56/77 12/55/77
f 12/55/78 65/54/78 64/109/78 10/135/78
f 56/106/79 68/110/79 67/11/79 55/10/79
f 84/57/80 69/61/80 68/136/80 82/137/80
f 63/7/81 67/11/81 69/61/81 61/60/81
f 65/54/82 60/56/82 61/107/82 66/59/82
f 21/40/83 76/39/83 78/75/83 19/74/83
f 66/59/84 86/58/84 85/121/84 64/109/84
f 86/58/85 84/57/85 83/26/85 87/25/85
f 80/27/86 83/26/86 82/119/86 81/138/86
f 77/116/87 75/114/87 74/76/87 78/75/87
f 75/28/88 80/27/88 79/4/88 73/3/88
f 76/39/89 72/38/89 71/30/89 77/29/89
f 87/25/90 71/30/90 70/112/90 85/121/90
f 40/139/91 10/135/91 64/109/91 85/121/91 70/112/91 20/92/91 1/122/91 39/140/91
